<mxfile host="app.diagrams.net" modified="2022-04-26T00:26:07.622Z" agent="5.0 (X11; Linux x86_64) AppleWebKit/537.36 (KHTML, like Gecko) Chrome/100.0.4896.127 Safari/537.36" etag="CikpbAh8LOefJhMWrhZa" version="17.4.6" type="github">
  <diagram id="C5RBs43oDa-KdzZeNtuy" name="Page-1">
    <mxGraphModel dx="1966" dy="1975" grid="1" gridSize="10" guides="1" tooltips="1" connect="1" arrows="1" fold="1" page="1" pageScale="1" pageWidth="827" pageHeight="1169" math="0" shadow="0">
      <root>
        <mxCell id="WIyWlLk6GJQsqaUBKTNV-0" />
        <mxCell id="WIyWlLk6GJQsqaUBKTNV-1" parent="WIyWlLk6GJQsqaUBKTNV-0" />
        <mxCell id="WIyWlLk6GJQsqaUBKTNV-2" value="" style="rounded=0;html=1;jettySize=auto;orthogonalLoop=1;fontSize=11;endArrow=block;endFill=0;endSize=8;strokeWidth=1;shadow=0;labelBackgroundColor=none;edgeStyle=orthogonalEdgeStyle;" parent="WIyWlLk6GJQsqaUBKTNV-1" source="WIyWlLk6GJQsqaUBKTNV-3" target="WIyWlLk6GJQsqaUBKTNV-6" edge="1">
          <mxGeometry relative="1" as="geometry" />
        </mxCell>
        <mxCell id="WIyWlLk6GJQsqaUBKTNV-3" value="Nginx" style="rounded=1;whiteSpace=wrap;html=1;fontSize=12;glass=0;strokeWidth=1;shadow=0;" parent="WIyWlLk6GJQsqaUBKTNV-1" vertex="1">
          <mxGeometry x="10" y="100" width="120" height="40" as="geometry" />
        </mxCell>
        <mxCell id="WIyWlLk6GJQsqaUBKTNV-5" value="" style="edgeStyle=orthogonalEdgeStyle;rounded=0;html=1;jettySize=auto;orthogonalLoop=1;fontSize=11;endArrow=block;endFill=0;endSize=8;strokeWidth=1;shadow=0;labelBackgroundColor=none;" parent="WIyWlLk6GJQsqaUBKTNV-1" source="WIyWlLk6GJQsqaUBKTNV-6" target="WIyWlLk6GJQsqaUBKTNV-7" edge="1">
          <mxGeometry y="10" relative="1" as="geometry">
            <mxPoint as="offset" />
          </mxGeometry>
        </mxCell>
        <mxCell id="5RgYrHhlgt2GvJAkm6Mv-10" value="" style="edgeStyle=orthogonalEdgeStyle;rounded=0;orthogonalLoop=1;jettySize=auto;html=1;" edge="1" parent="WIyWlLk6GJQsqaUBKTNV-1" source="WIyWlLk6GJQsqaUBKTNV-6">
          <mxGeometry relative="1" as="geometry">
            <mxPoint x="340" y="180" as="targetPoint" />
          </mxGeometry>
        </mxCell>
        <mxCell id="5RgYrHhlgt2GvJAkm6Mv-12" value="" style="edgeStyle=orthogonalEdgeStyle;rounded=0;orthogonalLoop=1;jettySize=auto;html=1;" edge="1" parent="WIyWlLk6GJQsqaUBKTNV-1" source="WIyWlLk6GJQsqaUBKTNV-6">
          <mxGeometry relative="1" as="geometry">
            <mxPoint x="340" y="180" as="targetPoint" />
          </mxGeometry>
        </mxCell>
        <mxCell id="5RgYrHhlgt2GvJAkm6Mv-15" style="edgeStyle=orthogonalEdgeStyle;rounded=0;orthogonalLoop=1;jettySize=auto;html=1;" edge="1" parent="WIyWlLk6GJQsqaUBKTNV-1" source="WIyWlLk6GJQsqaUBKTNV-6" target="5RgYrHhlgt2GvJAkm6Mv-14">
          <mxGeometry relative="1" as="geometry" />
        </mxCell>
        <mxCell id="WIyWlLk6GJQsqaUBKTNV-6" value="REQUEST" style="rhombus;whiteSpace=wrap;html=1;shadow=0;fontFamily=Helvetica;fontSize=12;align=center;strokeWidth=1;spacing=6;spacingTop=-4;" parent="WIyWlLk6GJQsqaUBKTNV-1" vertex="1">
          <mxGeometry x="170" y="140" width="100" height="80" as="geometry" />
        </mxCell>
        <mxCell id="5RgYrHhlgt2GvJAkm6Mv-5" value="" style="edgeStyle=orthogonalEdgeStyle;rounded=0;orthogonalLoop=1;jettySize=auto;html=1;entryX=0;entryY=0.5;entryDx=0;entryDy=0;entryPerimeter=0;" edge="1" parent="WIyWlLk6GJQsqaUBKTNV-1" source="WIyWlLk6GJQsqaUBKTNV-7" target="5RgYrHhlgt2GvJAkm6Mv-4">
          <mxGeometry relative="1" as="geometry" />
        </mxCell>
        <mxCell id="5RgYrHhlgt2GvJAkm6Mv-8" style="edgeStyle=orthogonalEdgeStyle;rounded=0;orthogonalLoop=1;jettySize=auto;html=1;exitX=1;exitY=1;exitDx=0;exitDy=0;entryX=0;entryY=0.5;entryDx=0;entryDy=0;" edge="1" parent="WIyWlLk6GJQsqaUBKTNV-1" source="WIyWlLk6GJQsqaUBKTNV-7" target="5RgYrHhlgt2GvJAkm6Mv-6">
          <mxGeometry relative="1" as="geometry" />
        </mxCell>
        <mxCell id="WIyWlLk6GJQsqaUBKTNV-7" value="TUNNEL" style="rounded=1;whiteSpace=wrap;html=1;fontSize=12;glass=0;strokeWidth=1;shadow=0;" parent="WIyWlLk6GJQsqaUBKTNV-1" vertex="1">
          <mxGeometry x="360" y="20" width="120" height="40" as="geometry" />
        </mxCell>
        <mxCell id="WIyWlLk6GJQsqaUBKTNV-8" value="No" style="rounded=0;html=1;jettySize=auto;orthogonalLoop=1;fontSize=11;endArrow=block;endFill=0;endSize=8;strokeWidth=1;shadow=0;labelBackgroundColor=none;edgeStyle=orthogonalEdgeStyle;" parent="WIyWlLk6GJQsqaUBKTNV-1" source="WIyWlLk6GJQsqaUBKTNV-10" target="WIyWlLk6GJQsqaUBKTNV-11" edge="1">
          <mxGeometry x="1" y="446" relative="1" as="geometry">
            <mxPoint x="-70" y="-6" as="offset" />
          </mxGeometry>
        </mxCell>
        <mxCell id="WIyWlLk6GJQsqaUBKTNV-9" value="Yes" style="edgeStyle=orthogonalEdgeStyle;rounded=0;html=1;jettySize=auto;orthogonalLoop=1;fontSize=11;endArrow=block;endFill=0;endSize=8;strokeWidth=1;shadow=0;labelBackgroundColor=none;" parent="WIyWlLk6GJQsqaUBKTNV-1" source="WIyWlLk6GJQsqaUBKTNV-10" target="WIyWlLk6GJQsqaUBKTNV-12" edge="1">
          <mxGeometry x="-1" y="-492" relative="1" as="geometry">
            <mxPoint x="-220" y="-52" as="offset" />
          </mxGeometry>
        </mxCell>
        <mxCell id="WIyWlLk6GJQsqaUBKTNV-10" value="MQTT" style="rhombus;whiteSpace=wrap;html=1;shadow=0;fontFamily=Helvetica;fontSize=12;align=center;strokeWidth=1;spacing=6;spacingTop=-4;" parent="WIyWlLk6GJQsqaUBKTNV-1" vertex="1">
          <mxGeometry x="20" y="390" width="100" height="80" as="geometry" />
        </mxCell>
        <mxCell id="WIyWlLk6GJQsqaUBKTNV-11" value="RAPTORCORE" style="rounded=1;whiteSpace=wrap;html=1;fontSize=12;glass=0;strokeWidth=1;shadow=0;" parent="WIyWlLk6GJQsqaUBKTNV-1" vertex="1">
          <mxGeometry x="10" y="310" width="120" height="40" as="geometry" />
        </mxCell>
        <mxCell id="WIyWlLk6GJQsqaUBKTNV-12" value="Webserver" style="rounded=1;whiteSpace=wrap;html=1;fontSize=12;glass=0;strokeWidth=1;shadow=0;" parent="WIyWlLk6GJQsqaUBKTNV-1" vertex="1">
          <mxGeometry x="10" y="530" width="120" height="40" as="geometry" />
        </mxCell>
        <mxCell id="5RgYrHhlgt2GvJAkm6Mv-4" value="PGADMIN" style="rounded=1;whiteSpace=wrap;html=1;fontSize=12;glass=0;strokeWidth=1;shadow=0;" vertex="1" parent="WIyWlLk6GJQsqaUBKTNV-1">
          <mxGeometry x="520" y="10" width="120" height="40" as="geometry" />
        </mxCell>
        <mxCell id="5RgYrHhlgt2GvJAkm6Mv-6" value="AIRBYTE" style="rounded=1;whiteSpace=wrap;html=1;fontSize=12;glass=0;strokeWidth=1;shadow=0;" vertex="1" parent="WIyWlLk6GJQsqaUBKTNV-1">
          <mxGeometry x="520" y="80" width="120" height="40" as="geometry" />
        </mxCell>
        <mxCell id="5RgYrHhlgt2GvJAkm6Mv-17" value="" style="edgeStyle=orthogonalEdgeStyle;rounded=0;orthogonalLoop=1;jettySize=auto;html=1;" edge="1" parent="WIyWlLk6GJQsqaUBKTNV-1" source="5RgYrHhlgt2GvJAkm6Mv-14" target="5RgYrHhlgt2GvJAkm6Mv-16">
          <mxGeometry relative="1" as="geometry" />
        </mxCell>
        <mxCell id="5RgYrHhlgt2GvJAkm6Mv-24" style="edgeStyle=orthogonalEdgeStyle;rounded=0;orthogonalLoop=1;jettySize=auto;html=1;exitX=1;exitY=1;exitDx=0;exitDy=0;entryX=0;entryY=0.5;entryDx=0;entryDy=0;" edge="1" parent="WIyWlLk6GJQsqaUBKTNV-1" source="5RgYrHhlgt2GvJAkm6Mv-14" target="5RgYrHhlgt2GvJAkm6Mv-18">
          <mxGeometry relative="1" as="geometry" />
        </mxCell>
        <mxCell id="5RgYrHhlgt2GvJAkm6Mv-25" style="edgeStyle=orthogonalEdgeStyle;rounded=0;orthogonalLoop=1;jettySize=auto;html=1;exitX=0.75;exitY=1;exitDx=0;exitDy=0;entryX=0;entryY=0.5;entryDx=0;entryDy=0;" edge="1" parent="WIyWlLk6GJQsqaUBKTNV-1" source="5RgYrHhlgt2GvJAkm6Mv-14" target="5RgYrHhlgt2GvJAkm6Mv-20">
          <mxGeometry relative="1" as="geometry" />
        </mxCell>
        <mxCell id="5RgYrHhlgt2GvJAkm6Mv-26" style="edgeStyle=orthogonalEdgeStyle;rounded=0;orthogonalLoop=1;jettySize=auto;html=1;exitX=1;exitY=0.75;exitDx=0;exitDy=0;entryX=0;entryY=0.5;entryDx=0;entryDy=0;" edge="1" parent="WIyWlLk6GJQsqaUBKTNV-1" source="5RgYrHhlgt2GvJAkm6Mv-14" target="5RgYrHhlgt2GvJAkm6Mv-21">
          <mxGeometry relative="1" as="geometry" />
        </mxCell>
        <mxCell id="5RgYrHhlgt2GvJAkm6Mv-28" style="edgeStyle=orthogonalEdgeStyle;rounded=0;orthogonalLoop=1;jettySize=auto;html=1;exitX=1;exitY=0;exitDx=0;exitDy=0;entryX=0;entryY=0.75;entryDx=0;entryDy=0;" edge="1" parent="WIyWlLk6GJQsqaUBKTNV-1" source="5RgYrHhlgt2GvJAkm6Mv-14" target="5RgYrHhlgt2GvJAkm6Mv-23">
          <mxGeometry relative="1" as="geometry" />
        </mxCell>
        <mxCell id="5RgYrHhlgt2GvJAkm6Mv-29" style="edgeStyle=orthogonalEdgeStyle;rounded=0;orthogonalLoop=1;jettySize=auto;html=1;exitX=1;exitY=1;exitDx=0;exitDy=0;entryX=0;entryY=0.5;entryDx=0;entryDy=0;" edge="1" parent="WIyWlLk6GJQsqaUBKTNV-1" source="5RgYrHhlgt2GvJAkm6Mv-14" target="5RgYrHhlgt2GvJAkm6Mv-22">
          <mxGeometry relative="1" as="geometry" />
        </mxCell>
        <mxCell id="5RgYrHhlgt2GvJAkm6Mv-14" value="HTTP ACESSIBLE" style="rounded=1;whiteSpace=wrap;html=1;" vertex="1" parent="WIyWlLk6GJQsqaUBKTNV-1">
          <mxGeometry x="355" y="220" width="130" height="40" as="geometry" />
        </mxCell>
        <mxCell id="5RgYrHhlgt2GvJAkm6Mv-16" value="Caps Connect" style="rounded=1;whiteSpace=wrap;html=1;" vertex="1" parent="WIyWlLk6GJQsqaUBKTNV-1">
          <mxGeometry x="565" y="220" width="130" height="40" as="geometry" />
        </mxCell>
        <mxCell id="5RgYrHhlgt2GvJAkm6Mv-18" value="Caps Connect API" style="rounded=1;whiteSpace=wrap;html=1;" vertex="1" parent="WIyWlLk6GJQsqaUBKTNV-1">
          <mxGeometry x="565" y="320" width="130" height="40" as="geometry" />
        </mxCell>
        <mxCell id="5RgYrHhlgt2GvJAkm6Mv-20" value="Caps Superset" style="rounded=1;whiteSpace=wrap;html=1;" vertex="1" parent="WIyWlLk6GJQsqaUBKTNV-1">
          <mxGeometry x="565" y="370" width="130" height="40" as="geometry" />
        </mxCell>
        <mxCell id="5RgYrHhlgt2GvJAkm6Mv-21" value="FTP" style="rounded=1;whiteSpace=wrap;html=1;" vertex="1" parent="WIyWlLk6GJQsqaUBKTNV-1">
          <mxGeometry x="565" y="270" width="130" height="40" as="geometry" />
        </mxCell>
        <mxCell id="5RgYrHhlgt2GvJAkm6Mv-22" value="Superset" style="rounded=1;whiteSpace=wrap;html=1;" vertex="1" parent="WIyWlLk6GJQsqaUBKTNV-1">
          <mxGeometry x="565" y="420" width="130" height="40" as="geometry" />
        </mxCell>
        <mxCell id="5RgYrHhlgt2GvJAkm6Mv-23" value="Webserver" style="rounded=1;whiteSpace=wrap;html=1;" vertex="1" parent="WIyWlLk6GJQsqaUBKTNV-1">
          <mxGeometry x="570" y="160" width="130" height="40" as="geometry" />
        </mxCell>
        <mxCell id="5RgYrHhlgt2GvJAkm6Mv-30" value="" style="swimlane;startSize=0;" vertex="1" parent="WIyWlLk6GJQsqaUBKTNV-1">
          <mxGeometry x="-90" y="-50" width="810" height="720" as="geometry" />
        </mxCell>
        <mxCell id="5RgYrHhlgt2GvJAkm6Mv-32" value="&lt;font style=&quot;font-size: 14px&quot;&gt;Snapshots&lt;/font&gt;" style="ellipse;whiteSpace=wrap;html=1;aspect=fixed;fontSize=40;" vertex="1" parent="5RgYrHhlgt2GvJAkm6Mv-30">
          <mxGeometry x="650" y="610" width="80" height="80" as="geometry" />
        </mxCell>
        <mxCell id="5RgYrHhlgt2GvJAkm6Mv-33" value="Kuma Monitoring tool" style="ellipse;whiteSpace=wrap;html=1;aspect=fixed;fontSize=14;" vertex="1" parent="5RgYrHhlgt2GvJAkm6Mv-30">
          <mxGeometry x="560" y="610" width="80" height="80" as="geometry" />
        </mxCell>
        <mxCell id="5RgYrHhlgt2GvJAkm6Mv-34" value="Cronjobs" style="ellipse;whiteSpace=wrap;html=1;aspect=fixed;fontSize=14;" vertex="1" parent="5RgYrHhlgt2GvJAkm6Mv-30">
          <mxGeometry x="464" y="610" width="80" height="80" as="geometry" />
        </mxCell>
        <mxCell id="5RgYrHhlgt2GvJAkm6Mv-35" value="Backup and monitoring" style="text;html=1;align=center;verticalAlign=middle;resizable=0;points=[];autosize=1;strokeColor=none;fillColor=none;fontSize=14;" vertex="1" parent="5RgYrHhlgt2GvJAkm6Mv-30">
          <mxGeometry x="504" y="570" width="160" height="20" as="geometry" />
        </mxCell>
        <mxCell id="5RgYrHhlgt2GvJAkm6Mv-31" value="Google Cloud" style="text;html=1;align=center;verticalAlign=middle;resizable=0;points=[];autosize=1;fontSize=40;" vertex="1" parent="WIyWlLk6GJQsqaUBKTNV-1">
          <mxGeometry x="175" y="-110" width="260" height="50" as="geometry" />
        </mxCell>
      </root>
    </mxGraphModel>
  </diagram>
</mxfile>
